<svg width="268" height="102" viewBox="0 0 268 102" fill="none" xmlns="http://www.w3.org/2000/svg">
<rect y="46" width="268" height="27" fill="#403436"/>
<path d="M60.632 85.424C61.352 85.424 62.016 85.592 62.624 85.928C63.232 86.264 63.712 86.768 64.064 87.44C64.432 88.112 64.616 88.928 64.616 89.888C64.616 91.04 64.368 92.024 63.872 92.84C63.392 93.656 62.752 94.272 61.952 94.688C61.168 95.104 60.328 95.312 59.432 95.312C58.824 95.312 58.224 95.216 57.632 95.024C57.056 94.832 56.528 94.552 56.048 94.184L53.864 95.168H53.816C53.752 95.168 53.712 95.136 53.696 95.072C53.68 95.008 53.704 94.968 53.768 94.952C54.152 94.728 54.44 94.424 54.632 94.04C54.84 93.64 54.944 93.136 54.944 92.528V80.864C54.944 80.304 54.888 79.904 54.776 79.664C54.68 79.424 54.496 79.304 54.224 79.304C54.016 79.304 53.72 79.392 53.336 79.568H53.312C53.248 79.568 53.2 79.528 53.168 79.448C53.136 79.352 53.136 79.296 53.168 79.28L56.672 77.624L56.792 77.6C56.872 77.6 56.952 77.64 57.032 77.72C57.128 77.784 57.176 77.848 57.176 77.912V87.032C57.704 86.536 58.24 86.144 58.784 85.856C59.328 85.568 59.944 85.424 60.632 85.424ZM60.008 94.832C60.696 94.832 61.224 94.48 61.592 93.776C61.96 93.072 62.144 92.088 62.144 90.824C62.144 89.432 61.912 88.4 61.448 87.728C60.984 87.04 60.336 86.696 59.504 86.696C58.752 86.696 57.976 86.968 57.176 87.512V91.04C57.176 91.92 57.328 92.648 57.632 93.224C57.936 93.784 58.304 94.192 58.736 94.448C59.168 94.704 59.592 94.832 60.008 94.832ZM75.959 85.736C75.991 85.736 76.007 85.784 76.007 85.88C76.007 85.976 75.991 86.024 75.959 86.024C75.447 86.024 74.999 86.248 74.615 86.696C74.247 87.128 73.911 87.76 73.607 88.592L70.943 95.672C70.095 97.912 69.279 99.48 68.495 100.376C67.727 101.288 66.871 101.744 65.927 101.744C65.447 101.744 65.079 101.64 64.823 101.432C64.567 101.24 64.439 100.952 64.439 100.568C64.439 100.2 64.551 99.92 64.775 99.728C64.999 99.536 65.271 99.44 65.591 99.44C65.767 99.44 65.911 99.464 66.023 99.512C66.151 99.56 66.303 99.64 66.479 99.752C66.783 99.96 67.071 100.064 67.343 100.064C67.711 100.064 68.039 99.92 68.327 99.632C68.631 99.36 68.943 98.896 69.263 98.24C69.583 97.6 69.967 96.68 70.415 95.48L66.575 87.728C66.223 87.04 65.943 86.584 65.735 86.36C65.543 86.136 65.303 86.024 65.015 86.024C64.967 86.024 64.943 85.976 64.943 85.88C64.943 85.784 64.967 85.736 65.015 85.736C65.463 85.736 65.807 85.744 66.047 85.76L67.055 85.784L68.711 85.76C68.967 85.744 69.311 85.736 69.743 85.736C69.791 85.736 69.815 85.784 69.815 85.88C69.815 85.976 69.791 86.024 69.743 86.024C69.327 86.024 69.023 86.064 68.831 86.144C68.639 86.208 68.543 86.32 68.543 86.48C68.543 86.608 68.591 86.768 68.687 86.96L71.519 92.744L72.959 88.568C73.103 88.152 73.175 87.776 73.175 87.44C73.175 86.992 73.047 86.648 72.791 86.408C72.535 86.152 72.167 86.024 71.687 86.024C71.655 86.024 71.639 85.976 71.639 85.88C71.639 85.784 71.655 85.736 71.687 85.736C72.119 85.736 72.447 85.744 72.671 85.76L74.111 85.784L75.071 85.76C75.263 85.744 75.559 85.736 75.959 85.736ZM101.234 94.712C101.266 94.712 101.282 94.76 101.282 94.856C101.282 94.952 101.266 95 101.234 95C100.69 95 100.258 94.992 99.9382 94.976L98.1622 94.952L96.3622 94.976C96.0582 94.992 95.6422 95 95.1142 95C95.0662 95 95.0422 94.952 95.0422 94.856C95.0422 94.76 95.0662 94.712 95.1142 94.712C95.7862 94.712 96.2422 94.632 96.4822 94.472C96.7222 94.312 96.8422 93.976 96.8422 93.464L96.8182 93.056L96.3142 83.24L91.3702 94.832C91.3382 94.896 91.2742 94.928 91.1782 94.928C91.0822 94.928 91.0182 94.896 90.9862 94.832L84.9142 83.288L84.7222 91.952C84.7062 92.816 84.8742 93.496 85.2262 93.992C85.5942 94.472 86.1062 94.712 86.7622 94.712C86.8102 94.712 86.8342 94.76 86.8342 94.856C86.8342 94.952 86.8102 95 86.7622 95C86.3302 95 85.9942 94.992 85.7542 94.976L84.4342 94.952L82.9222 94.976C82.6662 94.992 82.3222 95 81.8902 95C81.8422 95 81.8182 94.952 81.8182 94.856C81.8182 94.76 81.8422 94.712 81.8902 94.712C82.5462 94.712 83.0662 94.464 83.4502 93.968C83.8342 93.472 84.0342 92.8 84.0502 91.952L84.2662 82.016L84.2422 81.992C83.9222 81.4 83.5862 80.968 83.2342 80.696C82.8982 80.424 82.5062 80.288 82.0582 80.288C82.0102 80.288 81.9862 80.24 81.9862 80.144C81.9862 80.048 82.0102 80 82.0582 80L83.1862 80.024C83.4102 80.04 83.6982 80.048 84.0502 80.048L85.3222 80.024C85.4662 80.008 85.6502 80 85.8742 80C86.0822 80 86.2422 80.072 86.3542 80.216C86.4662 80.36 86.6742 80.704 86.9782 81.248L92.2102 91.064L96.7702 80.6C96.8662 80.376 96.9622 80.224 97.0582 80.144C97.1702 80.048 97.3142 80 97.4902 80C97.6342 80 97.7942 80.008 97.9702 80.024C98.1622 80.04 98.3782 80.048 98.6182 80.048L100.034 80.024C100.258 80.008 100.578 80 100.994 80C101.042 80 101.066 80.048 101.066 80.144C101.066 80.24 101.042 80.288 100.994 80.288C100.242 80.288 99.6982 80.44 99.3622 80.744C99.0262 81.048 98.8742 81.52 98.9062 82.16L99.4822 93.056C99.5142 93.552 99.5702 93.912 99.6502 94.136C99.7462 94.36 99.9062 94.512 100.13 94.592C100.37 94.672 100.738 94.712 101.234 94.712ZM111.876 93.704C111.94 93.704 111.98 93.744 111.996 93.824C112.028 93.888 112.012 93.936 111.948 93.968L109.476 95.144C109.412 95.176 109.332 95.192 109.236 95.192C108.996 95.192 108.756 95.072 108.516 94.832C108.292 94.592 108.132 94.264 108.036 93.848L106.932 94.448C106.516 94.656 106.084 94.832 105.636 94.976C105.188 95.104 104.788 95.168 104.436 95.168C103.924 95.168 103.516 95.04 103.212 94.784C102.924 94.512 102.78 94.128 102.78 93.632C102.78 93.264 102.868 92.968 103.044 92.744C103.236 92.52 103.5 92.336 103.836 92.192C104.188 92.032 104.74 91.824 105.492 91.568L107.94 90.776V88.88C107.94 87.92 107.844 87.216 107.652 86.768C107.46 86.304 107.148 86.072 106.716 86.072C106.332 86.072 106.028 86.216 105.804 86.504C105.58 86.792 105.444 87.264 105.396 87.92C105.3 88.816 104.828 89.264 103.98 89.264C103.228 89.264 102.852 88.936 102.852 88.28C102.852 87.848 103.124 87.416 103.668 86.984C104.212 86.552 104.868 86.2 105.636 85.928C106.404 85.656 107.076 85.52 107.652 85.52C108.404 85.52 109.012 85.744 109.476 86.192C109.956 86.64 110.196 87.296 110.196 88.16V92.408C110.196 92.872 110.276 93.232 110.436 93.488C110.612 93.744 110.852 93.872 111.156 93.872C111.38 93.872 111.612 93.816 111.852 93.704H111.876ZM107.964 93.464C107.948 93.352 107.94 93.184 107.94 92.96V91.184L106.62 91.664C106.188 91.824 105.876 92 105.684 92.192C105.508 92.384 105.42 92.616 105.42 92.888C105.42 93.224 105.516 93.488 105.708 93.68C105.9 93.872 106.14 93.968 106.428 93.968C106.78 93.968 107.188 93.856 107.652 93.632L107.964 93.464ZM119.098 85.496C119.466 85.496 119.818 85.632 120.154 85.904C120.506 86.16 120.682 86.472 120.682 86.84C120.682 87.176 120.578 87.456 120.37 87.68C120.162 87.888 119.89 87.992 119.554 87.992C119.314 87.992 119.114 87.944 118.954 87.848C118.81 87.752 118.658 87.608 118.498 87.416C118.354 87.256 118.226 87.144 118.114 87.08C118.018 87 117.898 86.96 117.754 86.96C117.594 86.96 117.418 87.024 117.226 87.152C117.05 87.264 116.77 87.512 116.386 87.896V93.056C116.386 93.696 116.538 94.136 116.842 94.376C117.146 94.6 117.706 94.712 118.522 94.712C118.586 94.712 118.618 94.76 118.618 94.856C118.618 94.952 118.586 95 118.522 95C117.962 95 117.522 94.992 117.202 94.976L115.258 94.952L113.842 94.976C113.602 94.992 113.274 95 112.858 95C112.81 95 112.786 94.952 112.786 94.856C112.786 94.76 112.81 94.712 112.858 94.712C113.354 94.712 113.69 94.6 113.866 94.376C114.042 94.136 114.13 93.696 114.13 93.056V88.544C114.13 88.048 114.066 87.688 113.938 87.464C113.826 87.224 113.642 87.104 113.386 87.104C113.114 87.104 112.73 87.216 112.234 87.44H112.186C112.138 87.44 112.098 87.4 112.066 87.32C112.05 87.24 112.058 87.192 112.09 87.176L115.426 85.544C115.522 85.512 115.578 85.496 115.594 85.496C115.77 85.496 115.93 85.664 116.074 86C116.234 86.32 116.33 86.76 116.362 87.32C117.018 86.648 117.554 86.176 117.97 85.904C118.402 85.632 118.778 85.496 119.098 85.496ZM126.35 95.288C125.294 95.288 124.398 95.064 123.662 94.616C122.942 94.152 122.398 93.56 122.03 92.84C121.678 92.104 121.502 91.336 121.502 90.536C121.502 89.528 121.782 88.648 122.342 87.896C122.902 87.128 123.614 86.544 124.478 86.144C125.358 85.728 126.254 85.52 127.166 85.52C127.934 85.52 128.622 85.68 129.23 86C129.854 86.32 130.166 86.76 130.166 87.32C130.166 87.624 130.046 87.888 129.806 88.112C129.582 88.32 129.262 88.424 128.846 88.424C128.462 88.424 128.158 88.328 127.934 88.136C127.71 87.928 127.526 87.616 127.382 87.2C127.238 86.752 127.094 86.448 126.95 86.288C126.822 86.112 126.582 86.024 126.23 86.024C125.542 86.024 124.99 86.368 124.574 87.056C124.174 87.728 123.974 88.624 123.974 89.744C123.974 91.072 124.27 92.136 124.862 92.936C125.454 93.72 126.398 94.112 127.694 94.112C128.126 94.112 128.494 94.064 128.798 93.968C129.118 93.872 129.518 93.712 129.998 93.488H130.022C130.07 93.488 130.11 93.512 130.142 93.56C130.19 93.608 130.198 93.648 130.166 93.68C129.574 94.224 128.982 94.632 128.39 94.904C127.798 95.16 127.118 95.288 126.35 95.288ZM136.477 95.312C135.485 95.312 134.613 95.088 133.861 94.64C133.125 94.176 132.557 93.56 132.157 92.792C131.757 92.008 131.557 91.16 131.557 90.248C131.557 89.208 131.821 88.328 132.349 87.608C132.877 86.872 133.549 86.328 134.365 85.976C135.181 85.608 136.021 85.424 136.885 85.424C137.877 85.424 138.741 85.656 139.477 86.12C140.213 86.584 140.773 87.2 141.157 87.968C141.557 88.72 141.757 89.528 141.757 90.392C141.757 91.352 141.517 92.208 141.037 92.96C140.557 93.696 139.909 94.272 139.093 94.688C138.293 95.104 137.421 95.312 136.477 95.312ZM137.197 94.808C137.821 94.808 138.293 94.504 138.613 93.896C138.949 93.272 139.117 92.384 139.117 91.232C139.117 90.112 138.973 89.152 138.685 88.352C138.397 87.552 138.021 86.952 137.557 86.552C137.093 86.136 136.597 85.928 136.069 85.928C134.789 85.928 134.149 87.072 134.149 89.36C134.149 90.432 134.285 91.384 134.557 92.216C134.829 93.032 135.197 93.672 135.661 94.136C136.125 94.584 136.637 94.808 137.197 94.808ZM145.363 86.888C145.363 87.352 145.523 87.752 145.843 88.088C146.179 88.424 146.659 88.776 147.283 89.144C147.891 89.496 148.339 89.776 148.627 89.984C148.931 90.176 149.203 90.456 149.443 90.824C149.683 91.176 149.803 91.608 149.803 92.12C149.803 92.664 149.667 93.176 149.395 93.656C149.123 94.136 148.715 94.528 148.171 94.832C147.627 95.12 146.979 95.264 146.227 95.264C145.347 95.264 144.515 95.048 143.731 94.616C143.635 94.52 143.587 94.424 143.587 94.328L143.539 91.952C143.539 91.904 143.579 91.88 143.659 91.88C143.755 91.864 143.811 91.872 143.827 91.904C144.083 92.704 144.507 93.384 145.099 93.944C145.691 94.504 146.291 94.784 146.899 94.784C147.235 94.784 147.499 94.68 147.691 94.472C147.899 94.264 148.003 93.96 148.003 93.56C148.003 92.968 147.835 92.504 147.499 92.168C147.163 91.816 146.667 91.456 146.011 91.088C145.451 90.784 145.027 90.536 144.739 90.344C144.451 90.152 144.195 89.88 143.971 89.528C143.747 89.176 143.635 88.744 143.635 88.232C143.635 87.288 143.971 86.6 144.643 86.168C145.315 85.72 146.139 85.496 147.115 85.496C147.483 85.496 147.811 85.52 148.099 85.568C148.403 85.616 148.739 85.712 149.107 85.856C149.251 85.904 149.323 85.992 149.323 86.12C149.323 86.52 149.315 86.832 149.299 87.056L149.275 88.256C149.275 88.304 149.227 88.328 149.131 88.328C149.035 88.328 148.987 88.304 148.987 88.256C148.987 87.952 148.859 87.624 148.603 87.272C148.347 86.904 148.011 86.592 147.595 86.336C147.195 86.08 146.779 85.952 146.347 85.952C145.691 85.952 145.363 86.264 145.363 86.888ZM172.202 80C172.25 80 172.274 80.048 172.274 80.144C172.274 80.24 172.25 80.288 172.202 80.288C171.626 80.288 171.074 80.544 170.546 81.056C170.018 81.568 169.594 82.256 169.274 83.12L164.834 94.976C164.818 95.04 164.73 95.072 164.57 95.072C164.41 95.072 164.322 95.04 164.306 94.976L158.186 81.992C157.898 81.416 157.61 80.992 157.322 80.72C157.034 80.432 156.714 80.288 156.362 80.288C156.314 80.288 156.29 80.24 156.29 80.144C156.29 80.048 156.314 80 156.362 80C156.602 80 156.77 80.008 156.866 80.024C157.186 80.056 157.602 80.072 158.114 80.072C159.49 80.072 160.658 80.056 161.618 80.024C161.874 80.008 162.194 80 162.578 80C162.626 80 162.65 80.048 162.65 80.144C162.65 80.24 162.626 80.288 162.578 80.288C162.098 80.288 161.722 80.392 161.45 80.6C161.194 80.792 161.066 81.072 161.066 81.44C161.066 81.712 161.154 82.04 161.33 82.424L165.482 91.28L168.602 83.048C168.762 82.6 168.842 82.216 168.842 81.896C168.842 81.4 168.69 81.008 168.386 80.72C168.098 80.432 167.674 80.288 167.114 80.288C167.066 80.288 167.042 80.24 167.042 80.144C167.042 80.048 167.066 80 167.114 80L168.29 80.024C168.962 80.056 169.562 80.072 170.09 80.072C170.394 80.072 170.77 80.056 171.218 80.024L172.202 80ZM179.57 93.416C179.602 93.416 179.634 93.448 179.666 93.512C179.714 93.576 179.722 93.624 179.69 93.656C179.098 94.232 178.498 94.648 177.89 94.904C177.282 95.16 176.618 95.288 175.898 95.288C174.89 95.288 174.018 95.08 173.282 94.664C172.546 94.232 171.986 93.664 171.602 92.96C171.218 92.24 171.026 91.472 171.026 90.656C171.026 89.728 171.266 88.872 171.746 88.088C172.226 87.288 172.882 86.664 173.714 86.216C174.546 85.752 175.474 85.52 176.498 85.52C177.49 85.52 178.25 85.736 178.778 86.168C179.306 86.584 179.57 87.16 179.57 87.896C179.57 88.36 179.482 88.592 179.306 88.592H177.842L173.522 88.64C173.474 88.944 173.45 89.28 173.45 89.648C173.45 91.024 173.77 92.112 174.41 92.912C175.066 93.712 175.962 94.112 177.098 94.112C177.498 94.112 177.914 94.056 178.346 93.944C178.778 93.832 179.17 93.664 179.522 93.44L179.57 93.416ZM175.61 86C175.13 86 174.714 86.192 174.362 86.576C174.01 86.96 173.754 87.488 173.594 88.16L177.002 88.088C176.954 86.696 176.49 86 175.61 86ZM187.465 85.496C187.833 85.496 188.185 85.632 188.521 85.904C188.873 86.16 189.049 86.472 189.049 86.84C189.049 87.176 188.945 87.456 188.737 87.68C188.529 87.888 188.257 87.992 187.921 87.992C187.681 87.992 187.481 87.944 187.321 87.848C187.177 87.752 187.025 87.608 186.865 87.416C186.721 87.256 186.593 87.144 186.481 87.08C186.385 87 186.265 86.96 186.121 86.96C185.961 86.96 185.785 87.024 185.593 87.152C185.417 87.264 185.137 87.512 184.753 87.896V93.056C184.753 93.696 184.905 94.136 185.209 94.376C185.513 94.6 186.073 94.712 186.889 94.712C186.953 94.712 186.985 94.76 186.985 94.856C186.985 94.952 186.953 95 186.889 95C186.329 95 185.889 94.992 185.569 94.976L183.625 94.952L182.209 94.976C181.969 94.992 181.641 95 181.225 95C181.177 95 181.153 94.952 181.153 94.856C181.153 94.76 181.177 94.712 181.225 94.712C181.721 94.712 182.057 94.6 182.233 94.376C182.409 94.136 182.497 93.696 182.497 93.056V88.544C182.497 88.048 182.433 87.688 182.305 87.464C182.193 87.224 182.009 87.104 181.753 87.104C181.481 87.104 181.097 87.216 180.601 87.44H180.553C180.505 87.44 180.465 87.4 180.433 87.32C180.417 87.24 180.425 87.192 180.457 87.176L183.793 85.544C183.889 85.512 183.945 85.496 183.961 85.496C184.137 85.496 184.297 85.664 184.441 86C184.601 86.32 184.697 86.76 184.729 87.32C185.385 86.648 185.921 86.176 186.337 85.904C186.769 85.632 187.145 85.496 187.465 85.496ZM194.79 95.312C193.798 95.312 192.926 95.088 192.174 94.64C191.438 94.176 190.87 93.56 190.47 92.792C190.07 92.008 189.87 91.16 189.87 90.248C189.87 89.208 190.134 88.328 190.662 87.608C191.19 86.872 191.862 86.328 192.678 85.976C193.494 85.608 194.334 85.424 195.198 85.424C196.19 85.424 197.054 85.656 197.79 86.12C198.526 86.584 199.086 87.2 199.47 87.968C199.87 88.72 200.07 89.528 200.07 90.392C200.07 91.352 199.83 92.208 199.35 92.96C198.87 93.696 198.222 94.272 197.406 94.688C196.606 95.104 195.734 95.312 194.79 95.312ZM195.51 94.808C196.134 94.808 196.606 94.504 196.926 93.896C197.262 93.272 197.43 92.384 197.43 91.232C197.43 90.112 197.286 89.152 196.998 88.352C196.71 87.552 196.334 86.952 195.87 86.552C195.406 86.136 194.91 85.928 194.382 85.928C193.102 85.928 192.462 87.072 192.462 89.36C192.462 90.432 192.598 91.384 192.87 92.216C193.142 93.032 193.51 93.672 193.974 94.136C194.438 94.584 194.95 94.808 195.51 94.808ZM213.06 94.712C213.108 94.712 213.132 94.76 213.132 94.856C213.132 94.952 213.108 95 213.06 95C212.644 95 212.316 94.992 212.076 94.976L210.636 94.952L209.244 94.976C208.988 94.992 208.652 95 208.236 95C208.188 95 208.164 94.952 208.164 94.856C208.164 94.76 208.188 94.712 208.236 94.712C208.732 94.712 209.068 94.6 209.244 94.376C209.42 94.136 209.508 93.696 209.508 93.056V89.6C209.508 88.736 209.348 88.096 209.028 87.68C208.724 87.264 208.236 87.056 207.564 87.056C207.18 87.056 206.78 87.136 206.364 87.296C205.964 87.456 205.612 87.672 205.308 87.944V93.056C205.308 93.696 205.396 94.136 205.572 94.376C205.764 94.6 206.108 94.712 206.604 94.712C206.652 94.712 206.676 94.76 206.676 94.856C206.676 94.952 206.652 95 206.604 95C206.188 95 205.86 94.992 205.62 94.976L204.18 94.952L202.764 94.976C202.524 94.992 202.196 95 201.78 95C201.732 95 201.708 94.952 201.708 94.856C201.708 94.76 201.732 94.712 201.78 94.712C202.276 94.712 202.612 94.6 202.788 94.376C202.964 94.136 203.052 93.696 203.052 93.056V88.544C203.052 88.048 202.988 87.688 202.86 87.464C202.748 87.224 202.564 87.104 202.308 87.104C202.036 87.104 201.652 87.216 201.156 87.44H201.108C201.06 87.44 201.02 87.4 200.988 87.32C200.972 87.24 200.98 87.192 201.012 87.176L204.348 85.544C204.444 85.512 204.5 85.496 204.516 85.496C204.692 85.496 204.86 85.672 205.02 86.024C205.18 86.36 205.276 86.824 205.308 87.416C206.412 86.104 207.628 85.448 208.956 85.448C209.82 85.448 210.5 85.728 210.996 86.288C211.508 86.832 211.764 87.552 211.764 88.448V93.056C211.764 93.696 211.852 94.136 212.028 94.376C212.22 94.6 212.564 94.712 213.06 94.712Z" fill="white"/>
<path d="M36.864 59.256C35.4987 59.256 33.8773 59.192 32 59.064C31.3173 59.0213 30.464 58.9787 29.44 58.936C28.4587 58.8933 27.3493 58.872 26.112 58.872L21.376 58.936C20.5227 58.9787 19.3707 59 17.92 59C17.8347 59 17.792 58.872 17.792 58.616C17.792 58.36 17.8347 58.232 17.92 58.232C19.2853 58.232 20.288 58.1253 20.928 57.912C21.568 57.6987 21.9947 57.2933 22.208 56.696C22.464 56.056 22.592 55.096 22.592 53.816V24.184C22.592 22.904 22.464 21.9653 22.208 21.368C21.9947 20.7707 21.568 20.3653 20.928 20.152C20.3307 19.896 19.3707 19.768 18.048 19.768C17.92 19.768 17.856 19.64 17.856 19.384C17.856 19.128 17.92 19 18.048 19L21.44 19.064C23.4027 19.1493 24.96 19.192 26.112 19.192C27.8613 19.192 29.6533 19.128 31.488 19C33.7067 18.9147 35.2 18.872 35.968 18.872C40.2773 18.872 44.096 19.7253 47.424 21.432C50.7947 23.1387 53.3973 25.464 55.232 28.408C57.0667 31.352 57.984 34.6587 57.984 38.328C57.984 42.4667 57.024 46.136 55.104 49.336C53.2267 52.4933 50.6667 54.9467 47.424 56.696C44.224 58.4027 40.704 59.256 36.864 59.256ZM36.224 57.784C38.9547 57.784 41.3653 57.1013 43.456 55.736C45.5467 54.328 47.168 52.2587 48.32 49.528C49.5147 46.7973 50.112 43.5333 50.112 39.736C50.112 36.1093 49.5573 32.824 48.448 29.88C47.3387 26.8933 45.76 24.5467 43.712 22.84C41.664 21.1333 39.296 20.28 36.608 20.28C33.9627 20.28 32.1493 20.536 31.168 21.048C30.1867 21.56 29.696 22.648 29.696 24.312V53.112C29.696 54.8187 30.144 56.0347 31.04 56.76C31.936 57.4427 33.664 57.784 36.224 57.784ZM85.582 54.776C85.6673 54.776 85.7527 54.8613 85.838 55.032C85.966 55.2027 85.9873 55.3307 85.902 55.416C84.3233 56.952 82.7233 58.0613 81.102 58.744C79.4807 59.4267 77.71 59.768 75.79 59.768C73.102 59.768 70.7767 59.2133 68.814 58.104C66.8513 56.952 65.358 55.4373 64.334 53.56C63.31 51.64 62.798 49.592 62.798 47.416C62.798 44.9413 63.438 42.6587 64.718 40.568C65.998 38.4347 67.7473 36.7707 69.966 35.576C72.1847 34.3387 74.6593 33.72 77.39 33.72C80.0353 33.72 82.062 34.296 83.47 35.448C84.878 36.5573 85.582 38.0933 85.582 40.056C85.582 41.2933 85.3473 41.912 84.878 41.912H80.974L69.454 42.04C69.326 42.8507 69.262 43.7467 69.262 44.728C69.262 48.3973 70.1153 51.2987 71.822 53.432C73.5713 55.5653 75.9607 56.632 78.99 56.632C80.0567 56.632 81.166 56.4827 82.318 56.184C83.47 55.8853 84.5153 55.4373 85.454 54.84L85.582 54.776ZM75.022 35C73.742 35 72.6327 35.512 71.694 36.536C70.7553 37.56 70.0727 38.968 69.646 40.76L78.734 40.568C78.606 36.856 77.3687 35 75.022 35ZM95.052 37.368C95.052 38.6053 95.4787 39.672 96.332 40.568C97.228 41.464 98.508 42.4027 100.172 43.384C101.793 44.3227 102.988 45.0693 103.756 45.624C104.567 46.136 105.292 46.8827 105.932 47.864C106.572 48.8027 106.892 49.9547 106.892 51.32C106.892 52.7707 106.529 54.136 105.804 55.416C105.079 56.696 103.991 57.7413 102.54 58.552C101.089 59.32 99.3613 59.704 97.356 59.704C95.0093 59.704 92.7907 59.128 90.7 57.976C90.444 57.72 90.316 57.464 90.316 57.208L90.188 50.872C90.188 50.744 90.2947 50.68 90.508 50.68C90.764 50.6373 90.9133 50.6587 90.956 50.744C91.6387 52.8773 92.7693 54.6907 94.348 56.184C95.9267 57.6773 97.5267 58.424 99.148 58.424C100.044 58.424 100.748 58.1467 101.26 57.592C101.815 57.0373 102.092 56.2267 102.092 55.16C102.092 53.5813 101.644 52.344 100.748 51.448C99.852 50.5093 98.5293 49.5493 96.78 48.568C95.2867 47.7573 94.156 47.096 93.388 46.584C92.62 46.072 91.9373 45.3467 91.34 44.408C90.7427 43.4693 90.444 42.3173 90.444 40.952C90.444 38.4347 91.34 36.6 93.132 35.448C94.924 34.2533 97.1213 33.656 99.724 33.656C100.705 33.656 101.58 33.72 102.348 33.848C103.159 33.976 104.055 34.232 105.036 34.616C105.42 34.744 105.612 34.9787 105.612 35.32C105.612 36.3867 105.591 37.2187 105.548 37.816L105.484 41.016C105.484 41.144 105.356 41.208 105.1 41.208C104.844 41.208 104.716 41.144 104.716 41.016C104.716 40.2053 104.375 39.3307 103.692 38.392C103.009 37.4107 102.113 36.5787 101.004 35.896C99.9373 35.2133 98.828 34.872 97.676 34.872C95.9267 34.872 95.052 35.704 95.052 37.368ZM122.887 53.56C122.887 54.9253 123.036 55.928 123.335 56.568C123.633 57.1653 124.188 57.592 124.999 57.848C125.852 58.104 127.196 58.232 129.031 58.232C129.159 58.232 129.223 58.36 129.223 58.616C129.223 58.872 129.159 59 129.031 59C127.281 59 125.916 58.9787 124.935 58.936L119.367 58.872L114.695 58.936C113.841 58.9787 112.689 59 111.239 59C111.111 59 111.047 58.872 111.047 58.616C111.047 58.36 111.111 58.232 111.239 58.232C112.604 58.232 113.585 58.1253 114.183 57.912C114.823 57.6987 115.249 57.2933 115.463 56.696C115.676 56.056 115.783 55.096 115.783 53.816V24.184C115.783 22.904 115.676 21.9653 115.463 21.368C115.249 20.7707 114.823 20.3653 114.183 20.152C113.543 19.896 112.561 19.768 111.239 19.768C111.111 19.768 111.047 19.64 111.047 19.384C111.047 19.128 111.111 19 111.239 19L114.631 19.064C116.593 19.1493 118.151 19.192 119.303 19.192C120.327 19.192 121.543 19.128 122.951 19C123.505 18.9573 124.209 18.9147 125.062 18.872C125.916 18.8293 126.897 18.808 128.007 18.808C132.359 18.808 135.793 19.7253 138.311 21.56C140.828 23.352 142.087 26.1467 142.087 29.944C142.087 32.5893 141.404 34.8293 140.039 36.664C138.673 38.4987 136.903 39.8853 134.727 40.824C132.593 41.7627 130.396 42.232 128.135 42.232C126.983 42.232 125.98 42.1253 125.127 41.912C125.041 41.912 124.999 41.8053 124.999 41.592C124.999 41.464 125.02 41.336 125.062 41.208C125.148 41.08 125.233 41.0373 125.319 41.08C125.959 41.2507 126.684 41.336 127.495 41.336C129.457 41.336 131.079 40.4187 132.359 38.584C133.681 36.7493 134.343 34.1467 134.343 30.776C134.343 27.4053 133.617 24.8027 132.167 22.968C130.759 21.1333 128.689 20.216 125.958 20.216C124.764 20.216 123.953 20.4933 123.527 21.048C123.1 21.6027 122.887 22.6907 122.887 24.312V53.56ZM167.77 54.776C167.855 54.776 167.94 54.8613 168.026 55.032C168.154 55.2027 168.175 55.3307 168.09 55.416C166.511 56.952 164.911 58.0613 163.29 58.744C161.668 59.4267 159.898 59.768 157.978 59.768C155.29 59.768 152.964 59.2133 151.002 58.104C149.039 56.952 147.546 55.4373 146.522 53.56C145.498 51.64 144.986 49.592 144.986 47.416C144.986 44.9413 145.626 42.6587 146.906 40.568C148.186 38.4347 149.935 36.7707 152.154 35.576C154.372 34.3387 156.847 33.72 159.578 33.72C162.223 33.72 164.25 34.296 165.658 35.448C167.066 36.5573 167.77 38.0933 167.77 40.056C167.77 41.2933 167.535 41.912 167.066 41.912H163.162L151.642 42.04C151.514 42.8507 151.45 43.7467 151.45 44.728C151.45 48.3973 152.303 51.2987 154.01 53.432C155.759 55.5653 158.148 56.632 161.178 56.632C162.244 56.632 163.354 56.4827 164.506 56.184C165.658 55.8853 166.703 55.4373 167.642 54.84L167.77 54.776ZM157.21 35C155.93 35 154.82 35.512 153.882 36.536C152.943 37.56 152.26 38.968 151.834 40.76L160.922 40.568C160.794 36.856 159.556 35 157.21 35ZM196.379 55.544C196.549 55.544 196.656 55.6507 196.699 55.864C196.784 56.0347 196.741 56.1627 196.571 56.248L189.979 59.384C189.808 59.4693 189.595 59.512 189.339 59.512C188.699 59.512 188.059 59.192 187.419 58.552C186.821 57.912 186.395 57.0373 186.139 55.928L183.195 57.528C182.085 58.0827 180.933 58.552 179.739 58.936C178.544 59.2773 177.477 59.448 176.539 59.448C175.173 59.448 174.085 59.1067 173.275 58.424C172.507 57.6987 172.123 56.6747 172.123 55.352C172.123 54.3707 172.357 53.5813 172.827 52.984C173.339 52.3867 174.043 51.896 174.939 51.512C175.877 51.0853 177.349 50.5307 179.355 49.848L185.883 47.736V42.68C185.883 40.12 185.627 38.2427 185.115 37.048C184.603 35.8107 183.771 35.192 182.619 35.192C181.595 35.192 180.784 35.576 180.187 36.344C179.589 37.112 179.227 38.3707 179.099 40.12C178.843 42.5093 177.584 43.704 175.323 43.704C173.317 43.704 172.315 42.8293 172.315 41.08C172.315 39.928 173.04 38.776 174.491 37.624C175.941 36.472 177.691 35.5333 179.739 34.808C181.787 34.0827 183.579 33.72 185.115 33.72C187.12 33.72 188.741 34.3173 189.979 35.512C191.259 36.7067 191.899 38.456 191.899 40.76V52.088C191.899 53.3253 192.112 54.2853 192.539 54.968C193.008 55.6507 193.648 55.992 194.459 55.992C195.056 55.992 195.675 55.8427 196.315 55.544H196.379ZM185.947 54.904C185.904 54.6053 185.883 54.1573 185.883 53.56V48.824L182.363 50.104C181.211 50.5307 180.379 51 179.867 51.512C179.397 52.024 179.163 52.6427 179.163 53.368C179.163 54.264 179.419 54.968 179.931 55.48C180.443 55.992 181.083 56.248 181.851 56.248C182.789 56.248 183.877 55.9493 185.115 55.352L185.947 54.904ZM211.476 59.768C208.66 59.768 206.271 59.1707 204.308 57.976C202.388 56.7387 200.937 55.16 199.956 53.24C199.017 51.2773 198.548 49.2293 198.548 47.096C198.548 44.408 199.295 42.0613 200.788 40.056C202.281 38.008 204.18 36.4507 206.484 35.384C208.831 34.2747 211.22 33.72 213.652 33.72C215.7 33.72 217.535 34.1467 219.156 35C220.82 35.8533 221.652 37.0267 221.652 38.52C221.652 39.3307 221.332 40.0347 220.692 40.632C220.095 41.1867 219.241 41.464 218.132 41.464C217.108 41.464 216.297 41.208 215.7 40.696C215.103 40.1413 214.612 39.3093 214.228 38.2C213.844 37.0053 213.46 36.1947 213.076 35.768C212.735 35.2987 212.095 35.064 211.156 35.064C209.321 35.064 207.849 35.9813 206.74 37.816C205.673 39.608 205.14 41.9973 205.14 44.984C205.14 48.5253 205.929 51.3627 207.508 53.496C209.087 55.5867 211.604 56.632 215.06 56.632C216.212 56.632 217.193 56.504 218.004 56.248C218.857 55.992 219.924 55.5653 221.204 54.968H221.268C221.396 54.968 221.503 55.032 221.588 55.16C221.716 55.288 221.737 55.3947 221.652 55.48C220.073 56.9307 218.495 58.0187 216.916 58.744C215.337 59.4267 213.524 59.768 211.476 59.768ZM248.145 54.776C248.23 54.776 248.315 54.8613 248.401 55.032C248.529 55.2027 248.55 55.3307 248.465 55.416C246.886 56.952 245.286 58.0613 243.665 58.744C242.043 59.4267 240.273 59.768 238.353 59.768C235.665 59.768 233.339 59.2133 231.377 58.104C229.414 56.952 227.921 55.4373 226.897 53.56C225.873 51.64 225.361 49.592 225.361 47.416C225.361 44.9413 226.001 42.6587 227.281 40.568C228.561 38.4347 230.31 36.7707 232.529 35.576C234.747 34.3387 237.222 33.72 239.953 33.72C242.598 33.72 244.625 34.296 246.033 35.448C247.441 36.5573 248.145 38.0933 248.145 40.056C248.145 41.2933 247.91 41.912 247.441 41.912H243.537L232.017 42.04C231.889 42.8507 231.825 43.7467 231.825 44.728C231.825 48.3973 232.678 51.2987 234.385 53.432C236.134 55.5653 238.523 56.632 241.553 56.632C242.619 56.632 243.729 56.4827 244.881 56.184C246.033 55.8853 247.078 55.4373 248.017 54.84L248.145 54.776ZM237.585 35C236.305 35 235.195 35.512 234.257 36.536C233.318 37.56 232.635 38.968 232.209 40.76L241.297 40.568C241.169 36.856 239.931 35 237.585 35Z" fill="#EEECF3"/>
</svg>
